<svg width="1440" height="1346" viewBox="0 0 1440 1346" fill="none" xmlns="http://www.w3.org/2000/svg">
<path opacity="0.16" d="M1183.59 117.13C1177.74 110.887 1172.18 104.406 1166.81 97.7666C1170.62 109.003 1174.05 120.402 1176.55 132.01C1167.66 117.679 1160.4 102.397 1153.59 87.0162L1150.28 79.3022L1147.1 71.5497C1146.12 69.1677 1147.26 66.432 1149.65 65.4541C1151.71 64.6227 1154.01 65.3417 1155.25 67.0996C1158.4 71.5483 1161.49 76.0195 1164.52 80.5674C1172.1 91.937 1179.31 103.561 1185.68 115.654C1186.78 117.791 1188.41 120.892 1189.38 123.042C1187.66 121.412 1185.24 118.879 1183.59 117.13ZM1215.52 52.9448C1213.85 47.8382 1206.32 49.0456 1206.38 54.4766C1207.01 73.6678 1208.35 92.8973 1212.5 111.701C1214.25 101.542 1215.08 91.3068 1215.49 81.0375C1217.56 86.3357 1219.75 91.5776 1222.09 96.709C1224.13 101.153 1226.26 105.57 1228.72 109.884C1228.22 104.948 1227.4 100.117 1226.51 95.3009C1223.79 81.0651 1219.89 66.7729 1215.49 52.9561L1215.52 52.9448ZM1283.12 53.6662C1284.28 48.2803 1276.89 45.6364 1274.36 50.5692C1264.53 70.6521 1255.21 91.2533 1248.72 112.691C1255.82 102.974 1262.15 92.7231 1268.09 82.2445C1266.64 91.1775 1265.46 100.151 1264.68 109.152C1264.49 111.588 1264.2 115.159 1264.15 117.546C1265.12 115.34 1266.36 111.98 1267.21 109.708C1273.87 91.4822 1278.86 72.5663 1283.13 53.6482L1283.12 53.6662ZM1351.98 69.3737L1342.09 76.2148C1319.2 92.3891 1296.37 109.145 1275.29 127.622C1290.34 119.754 1304.96 111.047 1319.34 102.003C1310.54 111.224 1301.91 120.616 1293.6 130.226C1291.33 132.872 1288.03 136.752 1285.91 139.434C1288.68 137.41 1292.68 134.22 1295.39 132.09C1317.11 114.715 1337.8 95.845 1357.88 76.599C1361.94 72.5699 1356.75 66.2056 1351.98 69.3737ZM1324.64 147.901C1315.04 152.035 1305.42 156.12 1295.95 160.631C1306.13 158.09 1316.16 155.148 1326.2 152.248C1351.06 144.89 1376.15 136.589 1400.65 128.048L1415.39 122.819C1417.57 122.053 1418.9 119.756 1418.38 117.422C1417.82 114.891 1415.33 113.3 1412.8 113.852C1402.74 116.044 1392.68 118.278 1382.65 120.624C1352.52 127.695 1322.51 135.24 1292.98 144.509C1314.79 141.845 1336.43 138.297 1358.02 134.321C1346.78 138.742 1335.61 143.275 1324.61 147.912L1324.64 147.901ZM1394.16 181.003C1377.24 181.119 1360.34 181.364 1343.59 181.748C1328.35 182.164 1313.09 182.555 1297.84 183.379C1313.06 184.619 1328.31 185.459 1343.52 186.309C1381.31 188.277 1419.89 189.512 1457.78 190.284L1480.63 190.686C1483.03 190.72 1485.13 188.915 1485.36 186.475C1485.63 183.901 1483.75 181.614 1481.16 181.366L1458.05 179.059C1404.18 173.924 1349.89 169.327 1295.85 167.128C1328.4 172.46 1361.26 176.981 1394.16 181.022L1394.16 181.003ZM1401.15 233.106C1381.44 227.696 1361.75 222.415 1342.22 217.358C1325.22 213.024 1308.23 208.653 1291.11 204.703C1307.63 210.647 1324.28 216.188 1340.92 221.764C1382.25 235.421 1424.66 248.619 1466.42 261.14L1491.65 268.619C1493.96 269.302 1496.47 268.103 1497.35 265.802C1498.26 263.387 1497.05 260.691 1494.63 259.767C1429.4 234.994 1362.48 210.311 1296.1 188.913C1330.47 204.238 1365.86 218.917 1401.14 233.124L1401.15 233.106ZM1289.58 212.025C1323.72 238.716 1358.75 265.081 1394.02 291.064C1374.41 279.254 1354.67 267.501 1335.83 256.432C1317.64 245.832 1299.47 235.222 1281.07 224.955C1306.06 242.296 1334.24 260.894 1359.77 277.676C1393.77 299.932 1431.57 324.108 1466.05 345.828L1492.8 362.594C1494.89 363.89 1497.66 363.365 1499.1 361.335C1500.59 359.221 1500.1 356.303 1498 354.817C1485.2 345.703 1459.3 327.384 1446.42 318.365C1395.06 282.469 1342.15 245.992 1289.57 212L1289.58 212.025ZM1475.29 456.297C1410.33 380.745 1343.34 303.838 1275.78 230.681C1309.39 273.005 1344.13 315.297 1379.21 357.243C1358.39 336.06 1337.31 314.776 1317.23 294.755C1299.43 277.083 1281.63 259.394 1263.53 242.004C1287.51 269.184 1314.72 298.829 1339.4 325.614C1372.26 361.177 1408.93 400.123 1442.38 435.355L1468.37 462.566C1472.74 466.834 1479.07 460.922 1475.3 456.304L1475.29 456.297ZM1407.8 540.793C1395.31 516.172 1363.11 452.668 1350.77 428.906C1319.12 367.499 1286.14 304.422 1252.91 243.865C1276.07 294.008 1300.59 345.176 1325.54 396.178C1311.93 372.636 1297.9 348.55 1284.85 326.327C1270.88 302.693 1256.93 279.066 1242.6 255.626C1255.11 280.071 1267.99 304.304 1280.86 328.555C1305.88 375.471 1333.78 426.673 1359.5 473.231L1399.53 545.178C1400.75 547.362 1403.49 548.225 1405.73 547.071C1408.04 545.902 1408.95 543.096 1407.78 540.787L1407.8 540.793Z" fill="url(#paint0_radial_3446_44983)"/>
<path opacity="0.26" d="M245.078 1203.93C250.831 1209.97 256.312 1216.25 261.604 1222.67C257.777 1211.74 254.351 1200.65 251.801 1189.36C260.598 1203.26 267.815 1218.09 274.602 1233.03L277.889 1240.52L281.07 1248.05C282.049 1250.38 280.956 1253.04 278.627 1254.01C276.631 1254.85 274.362 1254.15 273.153 1252.47C270.046 1248.16 266.978 1243.83 263.993 1239.41C256.52 1228.39 249.363 1217.13 243.036 1205.39C241.953 1203.32 240.337 1200.31 239.36 1198.2C241.038 1199.76 243.427 1202.22 245.061 1203.92L245.078 1203.93ZM214.522 1266.8C216.197 1271.78 223.534 1270.53 223.411 1265.24C222.623 1246.53 221.147 1227.8 216.935 1209.49C215.315 1219.42 214.595 1229.4 214.29 1239.42C212.216 1234.27 210.037 1229.18 207.708 1224.2C205.674 1219.88 203.563 1215.6 201.133 1211.4C201.666 1216.21 202.512 1220.91 203.413 1225.6C206.189 1239.45 210.128 1253.36 214.522 1266.8ZM148.649 1266.66C147.575 1271.93 154.806 1274.44 157.208 1269.61C166.611 1249.93 175.507 1229.78 181.646 1208.82C174.807 1218.35 168.732 1228.41 163.033 1238.67C164.377 1229.93 165.452 1221.17 166.119 1212.41C166.28 1210.03 166.534 1206.56 166.572 1204.22C165.638 1206.38 164.472 1209.66 163.655 1211.9C157.319 1229.73 152.643 1248.2 148.643 1266.71L148.649 1266.66ZM81.3759 1251.95L90.9587 1245.18C113.142 1229.22 135.22 1212.69 155.615 1194.49C141.008 1202.3 126.86 1210.91 112.927 1219.85C121.436 1210.79 129.748 1201.55 137.756 1192.11C139.94 1189.52 143.132 1185.69 145.164 1183.08C142.479 1185.07 138.622 1188.22 135.988 1190.33C114.976 1207.44 94.9702 1226.03 75.5767 1244.98C71.6423 1248.95 76.7757 1255.09 81.3817 1251.97L81.3759 1251.95ZM107.316 1175.13C116.65 1171.02 125.979 1166.96 135.165 1162.49C125.261 1165.04 115.526 1168 105.759 1170.93C81.5882 1178.31 57.2068 1186.63 33.4084 1195.16L19.0676 1200.4C16.9432 1201.17 15.6797 1203.42 16.1942 1205.69C16.7492 1208.15 19.1926 1209.68 21.6652 1209.11C31.4494 1206.89 41.239 1204.62 50.9943 1202.26C80.2875 1195.09 109.477 1187.49 138.184 1178.2C116.959 1180.98 95.8865 1184.64 74.8838 1188.7C85.8037 1184.3 96.6555 1179.79 107.322 1175.16L107.316 1175.13ZM39.2407 1143.45C55.7486 1143.19 72.2054 1142.82 88.5437 1142.3C103.395 1141.76 118.263 1141.24 133.122 1140.32C118.27 1139.24 103.427 1138.55 88.5665 1137.85C51.7052 1136.27 14.0998 1135.38 -22.8255 1134.95L-45.1177 1134.77C-47.4492 1134.75 -49.4823 1136.53 -49.6993 1138.92C-49.9211 1141.42 -48.0764 1143.64 -45.57 1143.87L-23.0346 1145.92C29.52 1150.47 82.49 1154.49 135.18 1156.18C103.404 1151.26 71.3262 1147.13 39.2296 1143.47L39.2407 1143.45ZM31.9694 1092.7C51.2233 1097.81 70.454 1102.8 89.5487 1107.56C106.162 1111.65 122.764 1115.76 139.486 1119.47C123.319 1113.81 107.044 1108.55 90.7802 1103.26C50.3623 1090.3 8.91335 1077.78 -31.8988 1065.94L-56.5402 1058.86C-58.8149 1058.21 -61.2436 1059.41 -62.0711 1061.66C-62.948 1064.02 -61.732 1066.65 -59.3719 1067.5C4.43356 1091.1 69.8932 1114.6 134.792 1134.92C101.155 1120.27 66.5158 1106.26 31.9973 1092.7L31.9694 1092.7ZM140.908 1112.31C107.384 1086.58 73.0234 1061.17 38.3916 1036.13C57.6193 1047.48 76.9639 1058.77 95.4314 1069.4C113.264 1079.57 131.074 1089.78 149.1 1099.62C124.582 1082.91 96.9532 1065.03 71.9087 1048.87C38.5843 1027.46 1.50026 1004.21 -32.3012 983.312L-58.5306 967.193C-60.5806 965.943 -63.277 966.485 -64.6543 968.472C-66.087 970.543 -65.585 973.378 -63.5113 974.813C-50.9447 983.597 -25.5371 1001.22 -12.9153 1009.92C37.4642 1044.48 89.3574 1079.6 140.936 1112.3L140.908 1112.31ZM-42.3157 875.726C21.6905 948.825 87.6634 1023.26 154.19 1094C121.05 1053.02 86.8086 1012.08 52.2344 971.489C72.7041 991.97 93.454 1012.54 113.211 1031.9C130.731 1048.97 148.24 1066.06 166.055 1082.87C142.428 1056.58 115.641 1027.91 91.3517 1002C59.0096 967.602 22.9197 929.947 -10.0237 895.876L-35.602 869.582C-39.9098 865.451 -46.0052 871.279 -42.3099 875.754L-42.3157 875.726ZM22.7206 792.76C35.1089 816.656 67.0892 878.31 79.3146 901.351C110.737 960.953 143.458 1022.18 176.367 1080.95C153.356 1032.27 128.985 982.576 104.201 933.07C117.666 955.914 131.571 979.263 144.496 1000.84C158.325 1023.75 172.143 1046.68 186.3 1069.43C173.874 1045.7 161.097 1022.17 148.348 998.644C123.532 953.116 95.8735 903.433 70.4006 858.245L30.7281 788.43C29.5158 786.308 26.8429 785.492 24.6654 786.64C22.4321 787.8 21.5637 790.555 22.7264 792.788L22.7206 792.76Z" fill="url(#paint1_radial_3446_44983)"/>
<defs>
<radialGradient id="paint0_radial_3446_44983" cx="0" cy="0" r="1" gradientUnits="userSpaceOnUse" gradientTransform="translate(1314.05 261.099) rotate(35.8457) scale(217.368 217.176)">
<stop stop-color="#F47920"/>
<stop offset="0.16" stop-color="#F17226"/>
<stop offset="0.38" stop-color="#EC6039"/>
<stop offset="0.64" stop-color="#E24257"/>
<stop offset="0.93" stop-color="#D51981"/>
<stop offset="1" stop-color="#D20F8C"/>
</radialGradient>
<radialGradient id="paint1_radial_3446_44983" cx="0" cy="0" r="1" gradientUnits="userSpaceOnUse" gradientTransform="translate(122.75 1053.56) rotate(-154.033) scale(214.578 214.312)">
<stop offset="0.3" stop-color="#FDEE00"/>
<stop offset="0.36" stop-color="#F2EB06"/>
<stop offset="0.47" stop-color="#D5E416"/>
<stop offset="0.61" stop-color="#A6D831"/>
<stop offset="0.77" stop-color="#66C956"/>
<stop offset="0.96" stop-color="#14B585"/>
<stop offset="1" stop-color="#00B091"/>
</radialGradient>
</defs>
</svg>
